<svg xmlns="http://www.w3.org/2000/svg" viewBox="0 0 240 320" role="img" aria-label="外務大臣">
  <rect width="240" height="320" rx="18" fill="#12213a"/>
  <path d="M29 296c16-68 50-98 91-98s75 30 91 98" fill="#5f9ee6"/>
  <circle cx="120" cy="106" r="51" fill="#c99b73"/>
  <path d="M69 91c24-40 75-54 109-7 2 15-3 30-10 42-28-27-72-27-98-7-4-9-5-19-1-28Z" fill="#29354a"/>
  <path d="M84 214h72l-20 82h-33Z" fill="#e9edf4"/>
  <path d="M76 212h88v84H76Z" fill="#273f5f"/>
  <path d="M96 218h48" stroke="#f0ce84" stroke-width="5" stroke-linecap="round"/>
  <circle cx="120" cy="244" r="12" fill="#f0ce84"/>
  <path d="M108 244h24M120 232v24" stroke="#273f5f" stroke-width="3"/>
  <path d="M86 184c20 13 47 13 68 0" fill="none" stroke="#f0ce84" stroke-width="7" stroke-linecap="round"/>
  <rect x="48" y="266" width="144" height="32" rx="8" fill="#0b1115" opacity=".86"/>
  <text x="120" y="288" fill="#f4efe4" font-size="18" text-anchor="middle" font-family="sans-serif">外務大臣</text>
</svg>
